<?xml version="1.0" encoding="UTF-8"?>
<svg xmlns="http://www.w3.org/2000/svg" id="Layer_1" data-name="Layer 1" viewBox="0 0 24 24">
  <path d="m24,12c0,6.617-5.383,12-12,12-2.703,0-5.298-.939-7.389-2.573l-2.573,2.573v-6.021c0-.527.428-.954.955-.955h6.021l-2.265,2.265c1.516,1.09,3.348,1.711,5.251,1.711,4.963,0,9-4.037,9-9h3ZM12,3c1.912,0,3.741.618,5.255,1.707l-2.269,2.269h5.83c.633,0,1.146-.513,1.146-1.146V0l-2.573,2.573c-2.088-1.635-4.675-2.573-7.389-2.573C5.383,0,0,5.383,0,12h3C3,7.037,7.038,3,12,3Zm3,5c1.105,0,2,.895,2,2v6H7v-6c0-1.105.895-2,2-2h6Zm-1.5,2h-3v2h3v-2Z"/>
</svg>
