<?xml version="1.0" encoding="utf-8"?>
<!-- Generator: Adobe Illustrator 25.0.0, SVG Export Plug-In . SVG Version: 6.00 Build 0)  -->
<svg version="1.1" id="Layer_1" xmlns="http://www.w3.org/2000/svg" xmlns:xlink="http://www.w3.org/1999/xlink" x="0px" y="0px"
	 viewBox="0 0 512 512" style="enable-background:new 0 0 512 512;" xml:space="preserve">
<path d="M255.4,512c70.7,0.2,131.1-24.7,181.2-74.5s75.3-110.1,75.5-180.8c0.2-70.7-24.7-131.1-74.5-181.2S327.3,0.2,256.6,0
	S125.6,24.7,75.5,74.5S0.2,184.7,0,255.4s24.7,131.1,74.5,181.2S184.7,511.8,255.4,512z M256.5,43c58.7,0.1,108.8,21.1,150.3,62.9
	s62.3,92,62.1,150.7s-21.1,108.8-62.9,150.3s-92,62.3-150.7,62.1s-108.8-21.1-150.3-62.9s-62.3-92-62.1-150.7
	c0.1-58.7,21.1-108.8,62.9-150.3S197.9,42.9,256.5,43z M149,261.7C151,261.7,151,261.7,149,261.7c0,2,0.7,3.7,2,5c0,1.3,1,2,3,2
	l41.8,64.1c8,11.4,18,13.4,30,6.1c12-6.6,14.4-16.6,7.1-30l-21.9-30.1l130,0.3c14.7,0,22-6.9,22.1-20.9c0-14-7.3-21-21.9-21.1
	l-130-0.3l22.1-29.9c7.4-13.3,5.1-23.3-6.9-30c-12.6-6.7-22.7-4.7-30,5.9L154,246.7c0,2-1,3-3,3l0,10
	C149.7,258.4,149,259.1,149,261.7z"/>
</svg>
